<svg xmlns="http://www.w3.org/2000/svg" viewBox="0 0 359.43 336.49"><defs><style>.cls-1{fill:none;stroke:#3a5d7f;stroke-linecap:round;stroke-linejoin:round;stroke-width:9.43px;}</style></defs><title>icon</title><g id="レイヤー_2" data-name="レイヤー 2"><g id="レイヤー_1-2" data-name="レイヤー 1"><g id="icon"><path id="face" class="cls-1" d="M33.15,252.18a59.28,59.28,0,0,0,3.62,26.55,58.43,58.43,0,0,0,9.33,15.93c7.11,8.85,32.56,35.36,71.17,37,17.26.75,30.42-4.23,56.74-14.2a118.36,118.36,0,0,0,29.79-15.9c14.63-10.9,19.16-19.92,20.52-22.87A49.82,49.82,0,0,0,228.51,264"/><g id="glasses"><path class="cls-1" d="M31.84,189.88c.51-.86,2.59-4.12,8.13-6.92,6.26-3.17,10.19-2.34,25.06-2.74,5.08-.13,12.61-.45,24.72-.46,3.84,0,13.66,0,14.17,2.55.19.94-1,1.6-1.81,4.28a12.88,12.88,0,0,0-.45,4.35c.66,18.72,1,21.84,1,21.84,2.49,24.4-1,24.83.24,33.63.13,1,.59,3.86-.88,4.93-1.19.87-3.09.12-3.55,0-1.68-.62-11.92-.46-32.4-.14-25.77.4-34.32,3.62-38.33-2-1.11-1.56-1.4-3.55-2-7.55-.89-6.16.14-9.39,1.58-19.49,1.3-9.13,2-13.7,2.23-18.69C29.94,196.61,29.61,193.58,31.84,189.88Z"/><path class="cls-1" d="M124.26,183.58c.7-3.22,10.79-3.74,25.34-4.21,12.11-.4,18.17-.59,21-.53,11.38.25,10.27,1.08,31.54,2.93,13.8,1.2,18,1.17,21.69,5,3.36,3.4,4.33,7.81,5.37,12.53,1.32,6,.86,9.25.62,18.89-.52,20-.78,30,.33,33.79.56,1.93,1.8,5.6.27,9.3-.29.72-1.64,3.74-6.93,6.57a31.05,31.05,0,0,1-15.59,3.4c-12.61-.31-18.55-2.15-32.56-4.1-12.49-1.74-17.54-1.64-26.73-4.91-6.54-2.33-9.76-4.43-12.28-6.9-1.22-1.21-5.44-5.6-7.93-15.87-4.09-16.82-.45-36.6-1.35-45a38.75,38.75,0,0,0-1-5.4C125,185.12,124,184.64,124.26,183.58Z"/><path class="cls-1" d="M95.6,212.31c4.21.2,7.71.51,10.23.77,10.32,1.06,14.47,2.35,15.87,2.81a49.57,49.57,0,0,1,5.82,2.33"/><path class="cls-1" d="M250.47,212.61c-1.63,1.2-3,2.12-4,2.73-7.44,4.77-10.48,4.8-11.57,4.71a12.46,12.46,0,0,1-2.52-.53,10.35,10.35,0,0,1-2.64-1.37"/><path class="cls-1" d="M249.67,222.89a79.12,79.12,0,0,0-9.77,6.92,80.22,80.22,0,0,0-10.58,10.54"/><path class="cls-1" d="M249.67,222.89c.27-3.43.53-6.86.8-10.28"/></g><g id="ear"><path class="cls-1" d="M222.12,282.81a29.28,29.28,0,0,0,14.19,3.81c2,0,4.58-.24,16.78-4.44,8.17-2.82,12.25-4.22,14-5.27,9-5.41,13-14.21,14.26-17.14,4.27-9.81,8.1-29.38-2.58-37-5.18-3.7-13.48-4-19.92-.83a20.31,20.31,0,0,0-7.28,6.19"/><path class="cls-1" d="M271.19,237.75c.39-.83.75-1.87.33-2.3-.62-.65-2.63.38-4.11,1.15-8.93,4.63-11.28,6.2-11.28,6.2-5.32,3.54-8,5.32-8.47,5.81-1.88,1.9-8,8.12-5.83,14,1.31,3.51,5.21,5.73,8.79,5.95,5.92.37,11.28-4.66,11.69-9.87.21-2.71-.84-6.5-3.29-7.57-2.22-1-4.09.93-7.41,0a9,9,0,0,1-4-2.47"/></g><g id="beard"><path class="cls-1" d="M106.84,330.62a29.83,29.83,0,0,0-1.17-5.7c-.63-2-1.18-3-1.12-4.53a7.48,7.48,0,0,1,1.6-4.14"/><path class="cls-1" d="M119.08,315.32c-1.18.46-3.43,1.54-3.93,3.54-.35,1.4.33,2.59,2.5,6.22,1.67,2.8,3.06,5.1,4,6.68"/><path class="cls-1" d="M132.68,317.1a8.23,8.23,0,0,0,.08,3.71c.48,1.78,1.45,2.4,2.15,3.93a8.93,8.93,0,0,1,.47,5.52"/><path class="cls-1" d="M144.42,321.15a13.43,13.43,0,0,0-3,7.7"/></g><g id="mouth"><path class="cls-1" d="M90.75,289.42a4.54,4.54,0,0,0-4-3.76c-2.4-.09-4,2.25-4.34,4-.64,3.36,2.93,5.87,3.3,6.12.74.5,3.1,1.93,7.87,1.12,8.57-1.46,9.6-7.53,15.52-8.09,6.26-.59,6.64,6,14.13,6.62,8.28.64,13.2-7,21.65-7.64a14.29,14.29,0,0,0,5.84-1.58,11.88,11.88,0,0,0,3.79-3.13,11,11,0,0,0,2.13-5.19"/><path class="cls-1" d="M107.16,297.26a8.78,8.78,0,0,0,2.82,6.93,6.6,6.6,0,0,0,4.93,1.77c1.86-.28,2.74-1.6,6.08-5.44,1.89-2.18,3.5-3.92,4.59-5.09"/></g><g id="moustache"><path class="cls-1" d="M95.8,279.08a17,17,0,0,1-.42-4.21,17.32,17.32,0,0,1,.65-4.34"/><path class="cls-1" d="M108.83,268.85a5.09,5.09,0,0,0-1.36,3.78,5.27,5.27,0,0,0,2.67,4"/><path class="cls-1" d="M119.85,268.57a4.81,4.81,0,0,0-1.16,3.73,4.74,4.74,0,0,0,1.91,3.18"/><path class="cls-1" d="M131.3,270.34a8,8,0,0,1,3.11,4.67"/></g><g id="hair"><path class="cls-1" d="M46.27,177.57a46.3,46.3,0,0,0-20.74,4c-3.39,1.55-10,4.55-10.22,9-.1,1.62.71,2.51.58,5.58-.05,1.14-.23,5.28-2,5.86-1.46.48-3.36-1.64-4-2.32C5,194.29,2.27,181.4,7.71,170.11a32.8,32.8,0,0,1,12.41-13.43,39.19,39.19,0,0,1,12.9-5.2"/><path class="cls-1" d="M41.68,162.83c-2.46-1-9-4-11.6-10.63-3.63-9.31,2-22.48,15.17-29.55"/><path class="cls-1" d="M82.79,58.11C69,70,60.92,78.61,56.09,84.47,54.54,86.36,52,89,46.87,94.3c-7.77,8-10.59,10.39-14.49,10.77-4.33.42-7.28-1.85-8-.75-1.07,1.63,4.89,7.31,6.23,8.57a56.1,56.1,0,0,0,14.65,9.76"/><path class="cls-1" d="M68.78,59.86A80.82,80.82,0,0,1,95.91,26.91a70.55,70.55,0,0,1,23.42-10.74s18.09-4.25,33.91,1.83A28.92,28.92,0,0,1,162,23.14,26.58,26.58,0,0,1,167.5,30"/><path class="cls-1" d="M167.5,30a14.53,14.53,0,0,1-3.75-9.33,11.17,11.17,0,0,1,.67-4c1.63-4.21,6.72-6.08,10.2-7.11C210-.9,238,8.86,238,8.86c1.93.67,13.23,4.67,12.78,7.55-.27,1.71-4.46,1.76-16.65,5.62-6.63,2.1-10.59,3.91-13.12,7.77a14.24,14.24,0,0,0-1.66,3.47"/><path class="cls-1" d="M219.35,33.27a89.55,89.55,0,0,1,22.41-2.36c6.51.13,45.44,1,61.09,28.19a48.69,48.69,0,0,1,6.22,22.63"/><path class="cls-1" d="M278.27,60.74a9.31,9.31,0,0,1,7,0,8.06,8.06,0,0,1,3.39,3.2c4.39,7,12.92,26.31,15.47,31.69,4.55,9.6,5.13,6.75,11.81,19.73,4,7.79,5.48,12.08,10.63,16.66a31.43,31.43,0,0,0,11.77,6.84c8.95,2.77,15.59.06,16.33,2.15s-5.67,6.21-7.33,7.27a44,44,0,0,1-12.1,5.06c-7.42,2-12.8,3.54-18.29,1.32-3.48-1.41-5.69-3.78-6-3.4s3.34,3.42,5.85,7.73c4.39,7.55,4.29,18.07.14,25.94-1.71,3.23-3.77,5.15-7.87,9s-11.12,10.23-21.89,12.73c-4.45,1-4.71.05-9.4,1a41.23,41.23,0,0,0-16.91,8"/><path class="cls-1" d="M305.27,187.32a9.06,9.06,0,0,1-.86,5.73c-.9,1.62-1.89,1.7-2.65,3.51-.89,2.14-.33,3.87-1.13,4.17-.54.2-.88-.57-2.29-1.09s-2.29-.07-3.51-.42c-.89-.25-2.06-1-3.14-3.09"/><path class="cls-1" d="M37.16,198.49c-1.94-16.31,2.06-24.6,6.17-29.16s8.23-5.27,16.54-11a87.63,87.63,0,0,0,17.87-16.44"/><path class="cls-1" d="M58.84,140.66a9,9,0,0,1,3.88-1.83c1.88-.36,3.51,0,6.87,1.16,3.17,1.09,4.73,1.8,7,2.69a63.14,63.14,0,0,0,9.68,3.25c4.43,1,6.12.64,8.77,2.31a12.92,12.92,0,0,1,3.54,3.31"/><path class="cls-1" d="M103.37,111.59c-1.05,2.47-7.5,18.39.53,32.85,1.46,2.62,4.49,8.07,10.63,11.32,5.16,2.72,7.59,1.28,22.06,4,5,.95,9.51,2,9.7,1.45s-6.18-2.09-11.8-7.7a26.69,26.69,0,0,1-5.41-7.77c-.67-1.46-5.28-11.58-.48-18.78a9.79,9.79,0,0,1,5.88-4.47,9.31,9.31,0,0,1,6.4,1"/><path class="cls-1" d="M143.81,128.17a93.74,93.74,0,0,0,57.8,27.5"/><path class="cls-1" d="M150.9,152.49c8.27-1.09,17-2,26.11-2.6q7-.48,13.73-.7"/><path class="cls-1" d="M202.68,146c11.92,4.92,25.92,12.53,26.13,22.36,0,1.19-1,4.16-1.88,6.64a65.36,65.36,0,0,1-4.13,9.53"/></g></g></g></g></svg>